<svg xmlns="http://www.w3.org/2000/svg" xmlns:xlink="http://www.w3.org/1999/xlink" fill="none" version="1.1" width="110" height="30.84765625" viewBox="0 0 110 30.84765625"><defs><linearGradient x1="0.5" y1="0" x2="0.5" y2="1" id="master_svg0_1318_56467"><stop offset="0%" stop-color="#6100DF" stop-opacity="1"/><stop offset="100%" stop-color="#8C00F3" stop-opacity="1"/></linearGradient><linearGradient x1="0.8578860759735107" y1="0.8597633242607117" x2="-0.2399289309978485" y2="-0.2765883505344391" id="master_svg1_1318_52345"><stop offset="0%" stop-color="#B200BB" stop-opacity="1"/><stop offset="100%" stop-color="#7F00D4" stop-opacity="1"/></linearGradient><linearGradient x1="2.4512760639190674" y1="1.268548846244812" x2="-2.2118921279907227" y2="-1.200913429260254" id="master_svg2_5953_90684"><stop offset="0%" stop-color="#F61B4A" stop-opacity="1"/><stop offset="100%" stop-color="#FF1365" stop-opacity="1"/></linearGradient><linearGradient x1="1" y1="-2.9802322387695312e-8" x2="0.5" y2="1.3333333730697632" id="master_svg3_5953_90654"><stop offset="0%" stop-color="#1A31FD" stop-opacity="1"/><stop offset="99.99992251396179%" stop-color="#4677FD" stop-opacity="1"/></linearGradient><linearGradient x1="-0.035017237067222595" y1="1.0188000202178955" x2="1.1166709661483765" y2="-0.0556098073720932" id="master_svg4_5953_90810"><stop offset="0%" stop-color="#1BA7FF" stop-opacity="1"/><stop offset="100%" stop-color="#0953FF" stop-opacity="1"/></linearGradient><linearGradient x1="-0.16657708585262299" y1="-1.6673908233642578" x2="1.6047992706298828" y2="2.7635462284088135" id="master_svg5_5953_90679"><stop offset="0%" stop-color="#F9F26E" stop-opacity="1"/><stop offset="100%" stop-color="#FFF350" stop-opacity="1"/></linearGradient><linearGradient x1="0.010019190609455109" y1="0.009814964607357979" x2="1.1810115575790405" y2="1.1812903881072998" id="master_svg6_5953_90770"><stop offset="0%" stop-color="#F3F314" stop-opacity="1"/><stop offset="100%" stop-color="#D8DC05" stop-opacity="1"/></linearGradient><linearGradient x1="0.9001821279525757" y1="0.0966641902923584" x2="-0.27103185653686523" y2="1.3089913129806519" id="master_svg7_5953_90649"><stop offset="0%" stop-color="#FFCD50" stop-opacity="1"/><stop offset="98.57142567634583%" stop-color="#FFBE22" stop-opacity="1"/></linearGradient><linearGradient x1="2.3266992568969727" y1="1.8836963176727295" x2="-2.0847716331481934" y2="-0.4517362117767334" id="master_svg8_1318_54233"><stop offset="0%" stop-color="#FAD522" stop-opacity="1"/><stop offset="100%" stop-color="#FAE11C" stop-opacity="1"/></linearGradient><linearGradient x1="1.0316925048828125" y1="3.13677716255188" x2="-1.0827641487121582" y2="-1.117309808731079" id="master_svg9_5953_90785"><stop offset="0%" stop-color="#FF8637" stop-opacity="1"/><stop offset="100%" stop-color="#FD6E1B" stop-opacity="1"/></linearGradient><linearGradient x1="-1.9736230373382568" y1="1.1028505563735962" x2="1.797330617904663" y2="-0.049001336097717285" id="master_svga_5953_90800"><stop offset="0%" stop-color="#01CB75" stop-opacity="1"/><stop offset="100%" stop-color="#02AA6B" stop-opacity="1"/></linearGradient><linearGradient x1="-1.7581160068511963" y1="-0.4311377704143524" x2="2.3482563495635986" y2="1.7436894178390503" id="master_svgb_5953_90664"><stop offset="0%" stop-color="#97E723" stop-opacity="1"/><stop offset="100%" stop-color="#7ACD00" stop-opacity="1"/></linearGradient></defs><g style="mix-blend-mode:passthrough"><g style="mix-blend-mode:passthrough"><g style="mix-blend-mode:passthrough"><path d="M56.489798828125004,8.535188883285523C58.049398828125,8.535188883285523,59.434598828125004,8.779838883285523,60.626098828124995,9.288358883285522C61.818698828125,9.778748883285523,62.834698828125,10.480938883285523,63.641198828125,11.356458883285523C65.376198828125,13.230758883285523,66.09439882812501,15.772358883285522,66.09439882812501,18.296758883285523C66.09439882812501,19.59355888328552,65.936898828125,20.838258883285523,65.603998828125,22.01265888328552C65.270998828125,23.186058883285522,64.727298828125,24.22015888328552,63.974198828125,25.131858883285524C63.219798828125,26.025458883285523,62.221998828124995,26.74455888328552,61.012298828125,27.28705888328552C58.681398828125,28.304058883285524,54.316398828125,28.285958883285524,52.020598828125,27.28705888328552C50.793998828125,26.76275888328552,49.811998828125,26.043558883285524,49.040698828125,25.131858883285524C48.287498828125,24.23815888328552,47.726898828125,23.186058883285522,47.410898828125,22.01265888328552C47.091698828125004,20.945058883285522,46.918498828124996,19.83425888328552,46.889698828125,18.653258883285524C46.889698828125,18.653258883285524,46.885298828125,18.296758883285523,46.885298828125,18.296758883285523C46.885298828125,16.911658883285522,47.095998828125,15.631858883285522,47.499198828125,14.458558883285523C47.919398828125,13.267058883285522,48.515198828125,12.250058883285522,49.339698828125,11.356458883285523C50.144898828125,10.480938883285523,51.143998828125,9.796878883285522,52.353498828125,9.288358883285522C53.545098828125,8.796818883285521,54.930298828125004,8.535188883285523,56.489798828125004,8.535188883285523C56.489798828125004,8.535188883285523,56.489798828125004,8.535188883285523,56.489798828125004,8.535188883285523ZM42.170308828125,1.3139588832855225C43.116028828124996,1.3139588832855225,45.570388828125,1.5064958832855224,46.236368828125,1.8927028832855224C46.902298828125,2.2947598832855225,47.235298828124996,2.9267288832855227,47.235298828124996,3.8022088832855223C47.235298828124996,4.275618883285523,47.077898828125,4.695798883285523,46.762998828125,5.046888883285522C46.447028828125,5.396858883285523,46.043818828125,5.573538883285522,45.570388828125,5.573538883285522C45.377838828125,5.573538883285522,45.185298828125,5.555408883285523,44.992768828125,5.520298883285522C44.325648828125,5.396858883285523,42.450058828125,5.1522188832855225,41.924518828125,5.801188883285523C41.750108828125,6.028818883285522,41.644778828125,6.326688883285523,41.644778828125,6.676658883285523C41.644778828125,6.676658883285523,41.644778828125,11.356458883285523,41.644778828125,11.356458883285523C41.644778828125,11.356458883285523,44.378888828125,11.356458883285523,44.378888828125,11.356458883285523C45.132068828125,11.356458883285523,45.710828828125,11.478758883285522,46.114038828125004,11.741458883285523C46.534198828125,12.004258883285523,46.726798828125,12.442458883285523,46.726798828125,13.056358883285522C46.726798828125,13.670258883285522,46.517298828125,14.108458883285522,46.114038828125004,14.370158883285523C45.728948828125,14.615958883285522,45.132068828125,14.756358883285522,44.378888828125,14.756358883285522C44.378888828125,14.756358883285522,41.661758828125,14.756358883285522,41.661758828125,14.756358883285522C41.661758828125,14.756358883285522,41.661758828125,25.377558883285523,41.661758828125,25.377558883285523C41.661758828125,26.237258883285524,41.434098828125,26.885058883285524,40.960678828125,27.323358883285522C40.470258828125,27.760458883285523,39.856388828125,27.989258883285522,39.068088828125,27.989258883285522C38.278668828125,27.989258883285522,37.647798828125,27.760458883285523,37.175504828125,27.323358883285522C36.702073828125,26.885058883285524,36.456298828125,26.237258883285524,36.456298828125,25.377558883285523C36.456298828125,25.377558883285523,36.456298828125,6.308578883285523,36.456298828125,6.308578883285523C36.456298828125,5.520298883285522,36.613730828125,4.801128883285522,36.911606828125,4.170288883285522C37.210614828125,3.5394488832855227,37.630808828125,3.0139388832855225,38.174468828125,2.5937588832855223C38.699988828125,2.1554488832855223,39.312738828125,1.8394638832855223,39.996818828125,1.6288108832855226C40.679788828125,1.4192918832855224,41.415978828125,1.3139588832855225,42.170308828125,1.3139588832855225C42.170308828125,1.3139588832855225,42.170308828125,1.3139588832855225,42.170308828125,1.3139588832855225ZM87.407698828125,8.428738883285522C88.967298828125,8.428738883285522,90.352498828125,8.674498883285523,91.543998828125,9.183028883285523C92.735598828125,9.690408883285523,93.734498828125,10.375608883285523,94.559098828125,11.251088883285522C95.365498828125,12.127658883285523,95.978198828125,13.161758883285522,96.381398828125,14.354258883285523C96.80279882812499,15.544658883285523,97.012298828125,16.824458883285523,97.012298828125,18.191458883285524C97.012298828125,19.489358883285522,96.854898828125,20.732858883285523,96.521898828125,21.906258883285524C96.18889882812499,23.081858883285523,95.64519882812499,24.115858883285522,94.892098828125,25.02645888328552C94.138798828125,25.920058883285524,93.138698828125,26.63935888328552,91.93029882812499,27.182858883285522C90.703598828125,27.70945888328552,89.213198828125,27.989258883285522,87.424698828125,27.989258883285522C85.654498828125,27.989258883285522,84.148098828125,27.725458883285523,82.920398828125,27.182858883285522C81.69369882812501,26.65735888328552,80.71289882812499,25.93815888328552,79.95859882812499,25.02645888328552C79.205498828125,24.115858883285522,78.644698828125,23.081858883285523,78.328798828125,21.906258883285524C77.97879882812501,20.751058883285523,77.820298828125,19.50635888328552,77.820298828125,18.191458883285524C77.820298828125,16.80745888328552,78.030898828125,15.527658883285522,78.434098828125,14.354258883285523C78.854298828125,13.161758883285522,79.450098828125,12.127658883285523,80.256398828125,11.251088883285522C81.062798828125,10.375608883285523,82.06189882812501,9.690408883285523,83.271398828125,9.183028883285523C84.462998828125,8.691488883285523,85.84819882812499,8.428738883285522,87.407698828125,8.428738883285522C87.407698828125,8.428738883285522,87.407698828125,8.428738883285522,87.407698828125,8.428738883285522ZM70.248698828125,3.1362588832855227C71.03709882812501,3.1362588832855227,71.65089882812501,3.3638988832855223,72.141398828125,3.8022088832855223C72.614798828125,4.240508883285523,72.842398828125,4.889468883285522,72.842398828125,5.747948883285522C72.842398828125,5.747948883285522,72.842398828125,10.269158883285522,72.842398828125,10.269158883285522C72.842398828125,10.269158883285522,75.313798828125,10.269158883285522,75.313798828125,10.269158883285522C76.068098828125,10.269158883285522,76.645698828125,10.391468883285523,77.048898828125,10.655368883285522C77.452198828125,10.918108883285523,77.662798828125,11.356458883285523,77.662798828125,11.970258883285522C77.662798828125,12.582958883285523,77.452198828125,13.021258883285523,77.048898828125,13.284058883285523C76.645698828125,13.547858883285523,76.068098828125,13.687258883285523,75.313798828125,13.687258883285523C75.313798828125,13.687258883285523,72.842398828125,13.687258883285523,72.842398828125,13.687258883285523C72.842398828125,13.687258883285523,72.842398828125,22.712658883285524,72.842398828125,22.712658883285524C72.842398828125,24.519058883285524,74.910498828125,23.923358883285523,75.97969882812501,23.923358883285523C76.55849882812501,23.923358883285523,76.996898828125,24.07965888328552,77.311798828125,24.37865888328552C77.627698828125,24.693458883285523,77.785198828125,25.113758883285524,77.785198828125,25.658458883285522C77.785198828125,27.199858883285522,75.489298828125,27.971158883285522,72.982798828125,27.971158883285522C71.09039882812499,27.971158883285522,69.72319882812499,27.58605888328552,68.899898828125,26.813758883285523C68.075198828125,26.043558883285524,67.655098828125,24.88605888328552,67.655098828125,23.344558883285522C67.655098828125,23.344558883285522,67.655098828125,5.747948883285522,67.655098828125,5.747948883285522C67.655098828125,4.889468883285522,67.899698828125,4.240508883285523,68.373098828125,3.8022088832855223C68.846498828125,3.3638988832855223,69.47739882812499,3.1362588832855227,70.248698828125,3.1362588832855227C70.248698828125,3.1362588832855227,70.248698828125,3.1362588832855227,70.248698828125,3.1362588832855227ZM100.412298828125,8.307668883285523C101.079498828125,8.307668883285523,101.640098828125,8.517188883285522,102.077298828125,8.937368883285522C102.533798828125,9.357548883285522,102.761398828125,9.954418883285522,102.761398828125,10.742678883285523C102.761398828125,10.742678883285523,102.761398828125,12.741658883285522,102.761398828125,12.741658883285522C102.761398828125,12.741658883285522,102.831698828125,12.741658883285522,102.831698828125,12.741658883285522C102.972098828125,12.198058883285523,103.164598828125,11.654358883285523,103.410298828125,11.145868883285523C103.656098828125,10.620358883285522,103.935898828125,10.163938883285523,104.286998828125,9.743758883285523C104.619998828125,9.323578883285522,105.040198828125,8.990598883285521,105.495398828125,8.727848883285523C105.950798828125,8.463958883285523,106.512598828125,8.341638883285523,107.143498828125,8.341638883285523C107.966898828125,8.341638883285523,108.650898828125,8.587408883285523,109.194598828125,9.060818883285522C109.720098828125,9.534228883285522,109.999898828125,10.146948883285523,109.999898828125,10.883118883285523C109.999898828125,11.356558883285523,109.930798828125,11.758558883285522,109.790398828125,12.091558883285522C109.649898828125,12.424558883285522,109.457398828125,12.688358883285522,109.211598828125,12.898058883285522C108.965798828125,13.109758883285522,108.684898828125,13.248958883285523,108.370098828125,13.336258883285522C108.072198828125,13.424658883285522,107.757298828125,13.476658883285522,107.441298828125,13.476658883285522C107.441298828125,13.476658883285522,106.512598828125,13.476658883285522,106.512598828125,13.476658883285522C105.460398828125,13.476658883285522,104.672098828125,13.898058883285522,104.111498828125,14.738358883285523C103.549698828125,15.579858883285523,103.269898828125,17.088358883285522,103.269898828125,19.243758883285523C103.269898828125,19.243758883285523,103.269898828125,25.290458883285524,103.269898828125,25.290458883285524C103.269898828125,25.973358883285524,103.094298828125,26.586158883285524,102.744398828125,27.112758883285522C102.393298828125,27.638258883285523,101.692198828125,27.901058883285522,100.676198828125,27.901058883285522C99.659198828125,27.901058883285522,98.958098828125,27.638258883285523,98.606998828125,27.112758883285522C98.256998828125,26.586158883285524,98.064498828125,25.991558883285524,98.064498828125,25.290458883285524C98.064498828125,25.290458883285524,98.064498828125,10.742678883285523,98.064498828125,10.742678883285523C98.064498828125,9.954418883285522,98.292098828125,9.357548883285522,98.74849882812501,8.937368883285522C99.203898828125,8.517188883285522,99.746398828125,8.307668883285523,100.412298828125,8.307668883285523C100.412298828125,8.307668883285523,100.412298828125,8.307668883285523,100.412298828125,8.307668883285523ZM56.524998828125,12.390458883285522C55.771798828125,12.390458883285522,55.105798828125,12.547858883285523,54.543998828125,12.828858883285523C53.983498828125,13.126658883285522,53.528098828124996,13.547858883285523,53.176898828125005,14.072358883285522C52.826998828125,14.598958883285523,52.546098828125,15.229758883285523,52.370498828125,15.949058883285522C52.202098828125,16.577358883285523,52.114198828125,17.259258883285522,52.094898828125,17.98375888328552C52.094898828125,17.98375888328552,52.090898828125,18.296758883285523,52.090898828125,18.296758883285523C52.090898828125,19.084958883285523,52.177998828125,19.839258883285524,52.336498828125,20.557458883285523C52.510998828125,21.27645888328552,52.756798828125,21.906258883285524,53.124898828125,22.468058883285522C53.474798828125,23.011658883285524,53.931198828125005,23.44995888328552,54.491998828125,23.764758883285523C55.052498828124996,24.07965888328552,55.718498828125,24.23815888328552,56.507998828125,24.23815888328552C57.296298828125,24.23815888328552,57.962298828125,24.07965888328552,58.522898828125,23.764758883285523C59.084698828125,23.44995888328552,59.539998828125,23.011658883285524,59.889998828125,22.468058883285522C60.240998828125,21.92435888328552,60.503798828125,21.293458883285524,60.679398828125,20.557458883285523C60.836798828125,19.839258883285524,60.925198828125005,19.084958883285523,60.925198828125005,18.296758883285523C60.925198828125005,17.438258883285524,60.836798828125,16.66705888328552,60.661298828125,15.949058883285522C60.485598828125,15.229758883285523,60.222898828125,14.615958883285522,59.872998828125,14.072358883285522C59.521798828125,13.547858883285523,59.048398828125,13.126658883285522,58.505898828125,12.828858883285523C57.945298828125004,12.530858883285523,57.296298828125,12.390458883285522,56.524998828125,12.390458883285522C56.524998828125,12.390458883285522,56.524998828125,12.390458883285522,56.524998828125,12.390458883285522ZM87.407698828125,12.285058883285522C86.654598828125,12.285058883285522,85.98739882812501,12.424458883285523,85.44489882812499,12.723458883285522C84.884398828125,13.021258883285523,84.427898828125,13.442558883285523,84.077798828125,13.968058883285522C83.726798828125,14.493558883285523,83.44709882812501,15.124458883285522,83.271398828125,15.843658883285523C83.11789882812499,16.471958883285524,83.03189882812501,17.153958883285522,83.012798828125,17.87845888328552C83.012798828125,17.87845888328552,83.00879882812501,18.191458883285524,83.00879882812501,18.191458883285524C83.00879882812501,18.979758883285523,83.095898828125,19.734058883285524,83.253398828125,20.452058883285524C83.411898828125,21.17125888328552,83.674698828125,21.80205888328552,84.042798828125,22.345758883285523C84.39269882812499,22.88935888328552,84.849198828125,23.32645888328552,85.409898828125,23.642558883285524C85.970398828125,23.957358883285522,86.636498828125,24.115858883285522,87.424698828125,24.115858883285522C88.214198828125,24.115858883285522,88.880198828125,23.957358883285522,89.440798828125,23.642558883285524C90.001498828125,23.32645888328552,90.457898828125,22.88935888328552,90.80789882812499,22.345758883285523C91.15889882812499,21.80205888328552,91.42179882812499,21.17125888328552,91.579198828125,20.452058883285524C91.754698828125,19.734058883285524,91.824898828125,18.979758883285523,91.824898828125,18.191458883285524C91.824898828125,17.33295888328552,91.73769882812499,16.561658883285524,91.56219882812499,15.843658883285523C91.38669882812499,15.142558883285522,91.123898828125,14.510558883285523,90.755798828125,13.968058883285522C90.404598828125,13.442558883285523,89.93119882812499,13.021258883285523,89.388698828125,12.723458883285522C88.826898828125,12.424458883285523,88.178998828125,12.285058883285522,87.407698828125,12.285058883285522C87.407698828125,12.285058883285522,87.407698828125,12.285058883285522,87.407698828125,12.285058883285522Z" fill-rule="evenodd" fill="#FFFFFF" fill-opacity="1"/></g></g><g style="opacity:0.20000000298023224;mix-blend-mode:passthrough"><rect x="0" y="0" width="30.84760856628418" height="30.84760856628418" rx="8" fill="#FFFFFF" fill-opacity="1"/></g><g><g><g><g><path d="M15.42892074584961,28.043328125000002C15.42892074584961,28.043328125000002,22.71681074584961,28.043328125000002,22.71681074584961,28.043328125000002C22.71681074584961,28.043328125000002,15.42892074584961,15.423828125,15.42892074584961,15.423828125C15.42892074584961,15.423828125,15.42892074584961,28.043328125000002,15.42892074584961,28.043328125000002C15.42892074584961,28.043328125000002,15.42892074584961,28.043328125000002,15.42892074584961,28.043328125000002Z" fill-rule="evenodd" fill="url(#master_svg0_1318_56467)" fill-opacity="1"/></g></g><g><g><path d="M22.72207074584961,28.043328125000002C22.72207074584961,28.043328125000002,22.821970745849608,28.043328125000002,22.821970745849608,28.043328125000002C25.69282074584961,28.043328125000002,28.04332074584961,25.692928125,28.04332074584961,22.821998125C28.04332074584961,22.821998125,28.04332074584961,22.706328125,28.04332074584961,22.706328125C28.04332074584961,22.706328125,15.42892074584961,15.423828125,15.42892074584961,15.423828125C15.42892074584961,15.423828125,22.72207074584961,28.043328125000002,22.72207074584961,28.043328125000002C22.72207074584961,28.043328125000002,22.72207074584961,28.043328125000002,22.72207074584961,28.043328125000002Z" fill-rule="evenodd" fill="url(#master_svg1_1318_52345)" fill-opacity="1"/></g></g><g><g><path d="M15.42892074584961,15.423828125C15.42892074584961,15.423828125,28.04332074584961,22.706328125,28.04332074584961,22.706328125C28.04332074584961,22.706328125,28.04332074584961,15.423828125,28.04332074584961,15.423828125C28.04332074584961,15.423828125,15.42892074584961,15.423828125,15.42892074584961,15.423828125C15.42892074584961,15.423828125,15.42892074584961,15.423828125,15.42892074584961,15.423828125Z" fill-rule="evenodd" fill="url(#master_svg2_5953_90684)" fill-opacity="1"/></g></g><g><g><path d="M8.146775245666504,28.043328125000002C8.146775245666504,28.043328125000002,15.429305245666505,28.043328125000002,15.429305245666505,28.043328125000002C15.429305245666505,28.043328125000002,15.429305245666505,15.423828125,15.429305245666505,15.423828125C15.429305245666505,15.423828125,8.146775245666504,28.043328125000002,8.146775245666504,28.043328125000002C8.146775245666504,28.043328125000002,8.146775245666504,28.043328125000002,8.146775245666504,28.043328125000002Z" fill-rule="evenodd" fill="url(#master_svg3_5953_90654)" fill-opacity="1"/></g></g><g><g><path d="M2.80419921875,22.711568125C2.80419921875,22.711568125,2.80419921875,22.821998125,2.80419921875,22.821998125C2.80419921875,25.692928125,5.15460921875,28.043328125000002,8.03083921875,28.043328125000002C8.03083921875,28.043328125000002,8.146509218750001,28.043328125000002,8.146509218750001,28.043328125000002C8.146509218750001,28.043328125000002,15.42909921875,15.423828125,15.42909921875,15.423828125C15.42909921875,15.423828125,2.80419921875,22.711568125,2.80419921875,22.711568125C2.80419921875,22.711568125,2.80419921875,22.711568125,2.80419921875,22.711568125Z" fill-rule="evenodd" fill="url(#master_svg4_5953_90810)" fill-opacity="1"/></g></g><g><g><path d="M8.141110897064209,2.804443359375C8.141110897064209,2.804443359375,15.42890089706421,15.423943359375,15.42890089706421,15.423943359375C15.42890089706421,15.423943359375,15.42890089706421,2.804443359375,15.42890089706421,2.804443359375C15.42890089706421,2.804443359375,8.141110897064209,2.804443359375,8.141110897064209,2.804443359375C8.141110897064209,2.804443359375,8.141110897064209,2.804443359375,8.141110897064209,2.804443359375Z" fill-rule="evenodd" fill="url(#master_svg5_5953_90679)" fill-opacity="1"/></g></g><g><g><path d="M8.03083921875,2.804443359375C5.15460921875,2.804443359375,2.80419921875,5.154883359375,2.80419921875,8.025763359375C2.80419921875,8.025763359375,2.80419921875,8.136163359375,2.80419921875,8.136163359375C2.80419921875,8.136163359375,15.42909921875,15.423943359375,15.42909921875,15.423943359375C15.42909921875,15.423943359375,8.14124921875,2.804443359375,8.14124921875,2.804443359375C8.14124921875,2.804443359375,8.03083921875,2.804443359375,8.03083921875,2.804443359375C8.03083921875,2.804443359375,8.03083921875,2.804443359375,8.03083921875,2.804443359375Z" fill-rule="evenodd" fill="url(#master_svg6_5953_90770)" fill-opacity="1"/></g></g><g><g><path d="M22.72207074584961,2.804443359375C22.72207074584961,2.804443359375,15.42892074584961,15.423943359375,15.42892074584961,15.423943359375C15.42892074584961,15.423943359375,28.04332074584961,8.146683359375,28.04332074584961,8.146683359375C28.04332074584961,8.146683359375,28.04332074584961,8.031023359375,28.04332074584961,8.031023359375C28.04332074584961,5.154883359375,25.69282074584961,2.804443359375,22.821970745849608,2.804443359375C22.821970745849608,2.804443359375,22.72207074584961,2.804443359375,22.72207074584961,2.804443359375C22.72207074584961,2.804443359375,22.72207074584961,2.804443359375,22.72207074584961,2.804443359375Z" fill-rule="evenodd" fill="url(#master_svg7_5953_90649)" fill-opacity="1"/></g></g><g><g><path d="M15.42892074584961,2.804443359375C15.42892074584961,2.804443359375,15.42892074584961,15.423943359375,15.42892074584961,15.423943359375C15.42892074584961,15.423943359375,22.71681074584961,2.804443359375,22.71681074584961,2.804443359375C22.71681074584961,2.804443359375,15.42892074584961,2.804443359375,15.42892074584961,2.804443359375C15.42892074584961,2.804443359375,15.42892074584961,2.804443359375,15.42892074584961,2.804443359375Z" fill-rule="evenodd" fill="url(#master_svg8_1318_54233)" fill-opacity="1"/></g></g><g><g><path d="M15.42892074584961,15.423670492401122C15.42892074584961,15.423670492401122,28.04332074584961,15.423670492401122,28.04332074584961,15.423670492401122C28.04332074584961,15.423670492401122,28.04332074584961,8.146430492401123,28.04332074584961,8.146430492401123C28.04332074584961,8.146430492401123,15.42892074584961,15.423670492401122,15.42892074584961,15.423670492401122C15.42892074584961,15.423670492401122,15.42892074584961,15.423670492401122,15.42892074584961,15.423670492401122Z" fill-rule="evenodd" fill="url(#master_svg9_5953_90785)" fill-opacity="1"/></g></g><g><g><path d="M2.80419921875,15.423828125C2.80419921875,15.423828125,2.80419921875,22.711568125,2.80419921875,22.711568125C2.80419921875,22.711568125,15.42909921875,15.423828125,15.42909921875,15.423828125C15.42909921875,15.423828125,2.80419921875,15.423828125,2.80419921875,15.423828125C2.80419921875,15.423828125,2.80419921875,15.423828125,2.80419921875,15.423828125Z" fill-rule="evenodd" fill="url(#master_svga_5953_90800)" fill-opacity="1"/></g></g><g><g><path d="M2.80419921875,15.423714884033203C2.80419921875,15.423714884033203,15.42909921875,15.423714884033203,15.42909921875,15.423714884033203C15.42909921875,15.423714884033203,2.80419921875,8.135974884033203,2.80419921875,8.135974884033203C2.80419921875,8.135974884033203,2.80419921875,15.423714884033203,2.80419921875,15.423714884033203C2.80419921875,15.423714884033203,2.80419921875,15.423714884033203,2.80419921875,15.423714884033203Z" fill-rule="evenodd" fill="url(#master_svgb_5953_90664)" fill-opacity="1"/></g></g></g></g></g></svg>