<?xml version="1.0" encoding="utf-8"?>
<!-- Generator: Adobe Illustrator 24.3.0, SVG Export Plug-In . SVG Version: 6.00 Build 0)  -->
<svg version="1.1" id="Brandmark" xmlns="http://www.w3.org/2000/svg" xmlns:xlink="http://www.w3.org/1999/xlink" x="0px" y="0px"
	 viewBox="0 0 46 26" style="enable-background:new 0 0 46 26;" xml:space="preserve">
<style type="text/css">
	.st0{fill:#FFFFFF;}
</style>
<path class="st0" d="M45.6,0.5c-0.3-0.3-0.9-0.4-1.2-0.5C44,0,43.2,0,41.8,0.1c-2.2,0.1-10,1.7-18.8,1.7c0,0,0,0,0,0s0,0,0,0
	c-8.8,0-16.6-1.6-18.8-1.7C2.8,0,2,0,1.6,0.1c-0.3,0-0.9,0.1-1.2,0.5c-1.2,1.4,0.8,5,3.5,6.2C4.4,12,5.1,17.9,7.4,21.8
	c0,0,0,0.1,0.2,0.4c1.8,2.8,4.6,3.8,7.6,3.8c1.6,0,4.6,0,7.7,0s6.1,0,7.7,0c3,0,5.9-1.1,7.6-3.8c0.2-0.3,0.2-0.4,0.2-0.4
	c2.3-3.9,3.1-9.8,3.5-15.1C44.9,5.5,46.9,1.9,45.6,0.5z M15.6,9.8c0.1,0.4-0.2,0.8-0.6,0.9c0,0-0.1,0-0.1,0c-0.3,0-0.7-0.2-0.7-0.6
	c-0.4-2.2,0.7-3.5,2-3.8c1.6-0.5,3.4,0.2,4,1.6c0.2,0.4,0,0.8-0.4,1c-0.4,0.2-0.8,0-1-0.4c-0.3-0.7-1.4-1-2.2-0.8
	C15.7,7.9,15.4,8.7,15.6,9.8z M30.3,17.8c-0.1,0.1-1.9,3.2-6.8,3.2c-4.9,0-6.7-3.1-6.8-3.2c-0.2-0.4-0.1-0.8,0.3-1
	c0.4-0.2,0.8-0.1,1,0.3c0.1,0.1,1.5,2.5,5.5,2.5c4,0,5.5-2.4,5.5-2.5c0.2-0.4,0.7-0.5,1-0.3C30.4,16.9,30.5,17.4,30.3,17.8z
	 M32.6,10.1c-0.1,0.4-0.4,0.6-0.7,0.6c0,0-0.1,0-0.1,0c-0.4-0.1-0.7-0.5-0.6-0.9c0.2-1.1-0.1-1.9-0.9-2.1c-0.7-0.2-1.8,0-2.2,0.8
	c-0.2,0.4-0.6,0.5-1,0.4c-0.4-0.2-0.6-0.6-0.4-1c0.6-1.4,2.4-2.1,4-1.6C31.9,6.6,33,7.9,32.6,10.1z"/>
</svg>
