<?xml version="1.0" encoding="UTF-8"?>
<svg width="320px" height="116px" viewBox="0 0 320 116" version="1.1" xmlns="http://www.w3.org/2000/svg" xmlns:xlink="http://www.w3.org/1999/xlink">
    <!-- Generator: Sketch 47.1 (45422) - http://www.bohemiancoding.com/sketch -->
    <title>Logopony_logo_White</title>
    <desc>Created with Sketch.</desc>
    <defs></defs>
      <linearGradient id="gradient" x2="1" y2="1">
    <stop offset="0%" stop-color="#53df83" />
    <stop offset="100%" stop-color="#00d5f7" />
  </linearGradient>
    <g id="Page-1" stroke="none" stroke-width="1" fill="none" fill-rule="evenodd">
        <g id="Logopony_logo_Dark">
            <g  fill="#3c526f" id="Group" transform="translate(90.000000, 54.000000)">
                <path d="M0.217921378,14.5184949 L0.217921378,0.520663265 L3.30844273,0.520663265 L3.30844273,11.734949 L9.21213096,11.734949 L9.21213096,14.5184949 L0.217921378,14.5184949 Z M30.7086807,4.24540816 C29.9162354,3.36428131 28.9422026,2.92372449 27.7865531,2.92372449 C26.6309037,2.92372449 25.6568709,3.36428131 24.8644256,4.24540816 C24.0719802,5.12653502 23.6757635,6.191214 23.6757635,7.43947704 C23.6757635,8.68774008 24.0719802,9.74908151 24.8644256,10.6235332 C25.6568709,11.4979848 26.6309037,11.9352041 27.7865531,11.9352041 C28.9422026,11.9352041 29.9162354,11.4979848 30.7086807,10.6235332 C31.501126,9.74908151 31.8973428,8.68774008 31.8973428,7.43947704 C31.8973428,6.191214 31.501126,5.12653502 30.7086807,4.24540816 Z M27.7766476,14.6586735 C25.7294972,14.6586735 24.0059544,13.9678003 22.6059677,12.5860332 C21.2059809,11.2042661 20.505998,9.48542695 20.505998,7.42946429 C20.505998,5.37350162 21.2059809,3.65466252 22.6059677,2.27289541 C24.0059544,0.891128295 25.7294972,0.200255102 27.7766476,0.200255102 C29.8237981,0.200255102 31.5473408,0.891128295 32.9473276,2.27289541 C34.3473143,3.65466252 35.0472972,5.37350162 35.0472972,7.42946429 C35.0472972,9.48542695 34.3473143,11.2042661 32.9473276,12.5860332 C31.5473408,13.9678003 29.8237981,14.6586735 27.7766476,14.6586735 Z M56.2425173,7.38941327 L59.3528497,7.38941327 L59.3528497,12.3557398 C57.9792778,13.904387 56.0774375,14.678699 53.6472718,14.678699 C51.6133288,14.678699 49.9062951,13.9978384 48.5261195,12.6360969 C47.1459438,11.2743554 46.4558664,9.55551633 46.4558664,7.47952806 C46.4558664,5.40353979 47.1591511,3.67135048 48.5657415,2.28290816 C49.972332,0.894465847 51.6694603,0.200255102 53.6571774,0.200255102 C55.6448944,0.200255102 57.371739,0.86109033 58.8377628,2.18278061 L57.233069,4.52576531 C56.6123202,3.97839862 56.0411078,3.60125529 55.5194146,3.39432398 C54.9977214,3.18739267 54.4331126,3.08392857 53.8255711,3.08392857 C52.6501106,3.08392857 51.6595688,3.48777232 50.853916,4.29547194 C50.0482632,5.10317156 49.6454429,6.16785053 49.6454429,7.48954082 C49.6454429,8.8112311 50.0317542,9.86923497 50.8043884,10.6635842 C51.5770226,11.4579334 52.4982265,11.855102 53.5680277,11.855102 C54.6378289,11.855102 55.5293165,11.6481738 56.2425173,11.2343112 L56.2425173,7.38941327 Z M82.9576973,4.24540816 C82.165252,3.36428131 81.1912192,2.92372449 80.0355697,2.92372449 C78.8799203,2.92372449 77.9058875,3.36428131 77.1134422,4.24540816 C76.3209968,5.12653502 75.9247801,6.191214 75.9247801,7.43947704 C75.9247801,8.68774008 76.3209968,9.74908151 77.1134422,10.6235332 C77.9058875,11.4979848 78.8799203,11.9352041 80.0355697,11.9352041 C81.1912192,11.9352041 82.165252,11.4979848 82.9576973,10.6235332 C83.7501426,9.74908151 84.1463594,8.68774008 84.1463594,7.43947704 C84.1463594,6.191214 83.7501426,5.12653502 82.9576973,4.24540816 Z M80.0256642,14.6586735 C77.9785138,14.6586735 76.254971,13.9678003 74.8549843,12.5860332 C73.4549975,11.2042661 72.7550146,9.48542695 72.7550146,7.42946429 C72.7550146,5.37350162 73.4549975,3.65466252 74.8549843,2.27289541 C76.254971,0.891128295 77.9785138,0.200255102 80.0256642,0.200255102 C82.0728147,0.200255102 83.7963574,0.891128295 85.1963442,2.27289541 C86.5963309,3.65466252 87.2963138,5.37350162 87.2963138,7.42946429 C87.2963138,9.48542695 86.5963309,11.2042661 85.1963442,12.5860332 C83.7963574,13.9678003 82.0728147,14.6586735 80.0256642,14.6586735 Z" id="logo"></path>
                <path d="M110.370668,1.77225765 C111.341413,2.60665808 111.826779,3.88827792 111.826779,5.61715561 C111.826779,7.3460333 111.328206,8.61096538 110.331046,9.4119898 C109.333885,10.2130142 107.811753,10.6135204 105.764602,10.6135204 L103.922176,10.6135204 L103.922176,14.5184949 L100.831655,14.5184949 L100.831655,0.520663265 L105.72498,0.520663265 C107.851375,0.520663265 109.399922,0.937857223 110.370668,1.77225765 Z M108.102304,7.27927296 C108.472112,6.85873514 108.657013,6.24462564 108.657013,5.43692602 C108.657013,4.6292264 108.415981,4.05516752 107.93391,3.71473214 C107.451839,3.37429677 106.70233,3.20408163 105.685358,3.20408163 L103.922176,3.20408163 L103.922176,7.91007653 L106.002335,7.91007653 C107.032514,7.91007653 107.732496,7.69981078 108.102304,7.27927296 Z M135.388849,4.24540816 C134.596404,3.36428131 133.622371,2.92372449 132.466722,2.92372449 C131.311072,2.92372449 130.33704,3.36428131 129.544594,4.24540816 C128.752149,5.12653502 128.355932,6.191214 128.355932,7.43947704 C128.355932,8.68774008 128.752149,9.74908151 129.544594,10.6235332 C130.33704,11.4979848 131.311072,11.9352041 132.466722,11.9352041 C133.622371,11.9352041 134.596404,11.4979848 135.388849,10.6235332 C136.181295,9.74908151 136.577511,8.68774008 136.577511,7.43947704 C136.577511,6.191214 136.181295,5.12653502 135.388849,4.24540816 Z M132.456816,14.6586735 C130.409666,14.6586735 128.686123,13.9678003 127.286136,12.5860332 C125.88615,11.2042661 125.186167,9.48542695 125.186167,7.42946429 C125.186167,5.37350162 125.88615,3.65466252 127.286136,2.27289541 C128.686123,0.891128295 130.409666,0.200255102 132.456816,0.200255102 C134.503967,0.200255102 136.227509,0.891128295 137.627496,2.27289541 C139.027483,3.65466252 139.727466,5.37350162 139.727466,7.42946429 C139.727466,9.48542695 139.027483,11.2042661 137.627496,12.5860332 C136.227509,13.9678003 134.503967,14.6586735 132.456816,14.6586735 Z M162.234378,0.520663265 L165.3249,0.520663265 L165.3249,14.5184949 L162.234378,14.5184949 L155.637304,5.74732143 L155.637304,14.5184949 L152.546783,14.5184949 L152.546783,0.520663265 L155.439194,0.520663265 L162.234378,9.53214286 L162.234378,0.520663265 Z M186.136391,14.5184949 L183.04587,14.5184949 L183.04587,8.99145408 L178.2516,0.520663265 L181.599665,0.520663265 L184.591131,5.72729592 L187.582597,0.520663265 L190.930662,0.520663265 L186.136391,8.99145408 L186.136391,14.5184949 Z" id="pony"></path>
            </g>

            <g id="Logo-Vector" fill="url(#gradient) #00d5f7" transform="translate(36.000000, 49.000000)">
                <path d="M13.0435937,11.1591561 C11.5707844,10.0732557 9.88146531,9.53031259 7.9755992,9.53031259 C5.77416192,9.53031259 3.89455761,10.2913051 2.33672989,11.8133128 C0.778902174,13.3353205 -2.66453526e-15,15.2341431 -2.66453526e-15,17.5098373 C-2.66453526e-15,19.7855316 0.764274904,21.6697197 2.29284764,23.162458 C3.82142037,24.6551964 5.71199514,25.4015544 7.96462864,25.4015544 C10.6560869,25.4015544 12.7624139,24.5527551 14.2836729,22.8551311 L14.2836729,18.3278581 L10.8389161,16.7880462 L10.8389161,21.6258233 C10.0490316,22.0794987 9.06169085,22.306333 7.87686414,22.306333 C6.69203742,22.306333 5.67178528,21.8709575 4.8160771,21.0001934 C3.96036892,20.1294294 3.53252124,18.9696476 3.53252124,17.5208133 C3.53252124,16.071979 3.97865301,14.90488 4.87092991,14.0194813 C5.76320682,13.1340825 6.86025214,12.6913898 8.16209877,12.6913898 C8.83496333,12.6913898 9.46027916,12.8048069 10.038065,13.0316446 C10.6158509,13.2584823 11.2484804,13.6719061 11.9359724,14.2719284 L11.9564063,14.2423983 C13.4292156,15.3282987 15.1185347,15.8712418 17.0244008,15.8712418 C19.2258381,15.8712418 21.1054424,15.1102493 22.6632701,13.5882416 C24.2210978,12.0662339 25,10.1674113 25,7.89171705 C25,5.61602278 24.2357251,3.73183472 22.7071524,2.23909635 C21.1785796,0.746357988 19.2880049,7.99360578e-15 17.0353714,7.99360578e-15 C14.3439131,7.99360578e-15 12.2375861,0.84879928 10.7163271,2.5464233 L10.7163271,6.93819755 L14.1610839,8.44890292 L14.1610839,3.77573111 C14.9509684,3.32205572 15.9383091,3.09522143 17.1231359,3.09522143 C18.3079626,3.09522143 19.3282147,3.53059692 20.1839229,4.40136097 C21.0396311,5.27212502 21.4674788,6.43190679 21.4674788,7.88074109 C21.4674788,9.32957539 21.021347,10.4966744 20.1290701,11.3820731 C19.2367932,12.2674719 18.1397479,12.7101646 16.8379012,12.7101646 C16.1650367,12.7101646 15.5397208,12.5967475 14.961935,12.3699098 C14.3841491,12.1430721 13.7515196,11.7296483 13.0640276,11.129626 L13.0435937,11.1591561 Z" id="Combined-Shape" transform="translate(12.500000, 12.700777) rotate(-360.000000) translate(-12.500000, -12.700777) "></path>
            </g>
        </g>
    </g>
</svg>