<svg xmlns="http://www.w3.org/2000/svg" id="Layer_1" data-name="Layer 1" viewBox="0 0 59.05 16.84"><defs><linearGradient id="linear-gradient" x1="623.18" x2="621.36" y1="409.55" y2="404.63" gradientTransform="rotate(20.35 1429.677 -1505.812)" gradientUnits="userSpaceOnUse"><stop offset="0" stop-color="#ed427d"/><stop offset=".57" stop-color="#f48579"/><stop offset="1" stop-color="#fdc563"/></linearGradient><linearGradient id="linear-gradient-2" x1="232.84" x2="234.04" y1="186.12" y2="184.97" gradientTransform="rotate(20.4 611.793 -532.83)" gradientUnits="userSpaceOnUse"><stop offset="0" stop-color="#ef5a7c"/><stop offset=".47" stop-color="#ee447d"/><stop offset=".56" stop-color="#eb3a79"/><stop offset=".73" stop-color="#e82c74"/><stop offset=".88" stop-color="#e72772"/></linearGradient><linearGradient id="linear-gradient-3" x1="829.45" x2="830.36" y1="-675.24" y2="-676.62" gradientTransform="matrix(-.95 -.37 .34 -.96 1024.59 -330.2)" gradientUnits="userSpaceOnUse"><stop offset=".23" stop-color="#ef5a7c"/><stop offset=".47" stop-color="#ee447d"/><stop offset=".56" stop-color="#eb3a79"/><stop offset=".73" stop-color="#e82c74"/><stop offset=".88" stop-color="#e72772"/></linearGradient></defs><path fill="#32027d" d="M45.24 3.53a1 1 0 0 1-.76-.34.87.87 0 0 1-.22-.72 1 1 0 0 1 2 .13 1 1 0 0 1-1 .93Z"/><path fill="#382977" d="M44.83 2.54a.32.32 0 0 0 .08.27.42.42 0 0 0 .34.14.38.38 0 0 0 .42-.35.43.43 0 0 0-.84-.06ZM52.94 14.91ZM57.14 5Z"/><path fill="url(#linear-gradient)" d="m13.5 4.65-5 3.18a.2.2 0 0 1-.27-.1L6.89 4.88a.21.21 0 0 0-.35 0L1 11.91a.2.2 0 0 0 .25.3L6.31 9a.2.2 0 0 1 .26.1l1.35 2.94a.2.2 0 0 0 .35 0L13.74 5a.2.2 0 0 0-.24-.35Z"/><path fill="#32027d" d="M31.26 5.07v6.69h-.91V10.5a3 3 0 0 1-2.66 1.43 3.4 3.4 0 0 1-3.4-3.51 3.38 3.38 0 0 1 3.4-3.49 3 3 0 0 1 2.66 1.41V5.07h.91Zm-.91 3.37a2.58 2.58 0 0 0-2.6-2.64 2.55 2.55 0 0 0-2.56 2.6 2.58 2.58 0 0 0 2.56 2.6 2.56 2.56 0 0 0 2.6-2.56Z"/><path fill="#32027d" d="M27.67 12.2a3.64 3.64 0 0 1-2.6-1.07A3.81 3.81 0 0 1 24 8.41a3.66 3.66 0 0 1 3.69-3.78 3.48 3.48 0 0 1 2.39.9v-.46a.29.29 0 0 1 .29-.29h.91a.29.29 0 0 1 .29.29v6.69a.29.29 0 0 1-.29.3h-.91a.29.29 0 0 1-.29-.3v-.46a3.46 3.46 0 0 1-2.41.9Zm0-7a3.09 3.09 0 0 0-3.11 3.2 3.1 3.1 0 0 0 3.11 3.22 2.73 2.73 0 0 0 2.41-1.28.3.3 0 0 1 .33-.14.3.3 0 0 1 .22.29v1H31V5.35h-.35v1a.29.29 0 0 1-.22.29.28.28 0 0 1-.33-.14 2.73 2.73 0 0 0-2.43-1.29Zm2.91 1Zm-2.83 5.15A2.86 2.86 0 0 1 24.9 8.4a2.84 2.84 0 0 1 2.85-2.89 3 3 0 0 1 2 .79 2.9 2.9 0 0 1 .88 2.14 2.85 2.85 0 0 1-2.88 2.89Zm0-5.24a2.26 2.26 0 0 0-2.27 2.29 2.29 2.29 0 1 0 4.58 0 2.28 2.28 0 0 0-2.31-2.31Z"/><path fill="#3b2e84" d="M43.44 7.87v3.89h-.92V7.91a1.88 1.88 0 0 0-1.88-2.1c-1.26 0-2.18.91-2.08 2.54v3.46h-.9v-3.9a1.87 1.87 0 0 0-1.84-2.1 2 2 0 0 0-2.14 2.24v3.71h-.92V5.07h.92v1.16a2.58 2.58 0 0 1 4.63.28 2.46 2.46 0 0 1 2.47-1.59c1.63 0 2.66 1.08 2.66 2.95Z"/><path fill="#32027d" d="M43.43 12.06h-.9a.3.3 0 0 1-.3-.3V7.91a1.6 1.6 0 0 0-1.59-1.81 1.75 1.75 0 0 0-1.29.5 2.27 2.27 0 0 0-.5 1.74v3.42a.29.29 0 0 1-.29.3h-.89a.3.3 0 0 1-.3-.3V7.91c0-1.1-.61-1.81-1.55-1.81a1.81 1.81 0 0 0-1.85 2v3.7a.29.29 0 0 1-.3.3h-.9a.3.3 0 0 1-.3-.3V5.07a.3.3 0 0 1 .3-.29h.9a.29.29 0 0 1 .3.29v.29a3 3 0 0 1 2-.73 2.7 2.7 0 0 1 2.35 1.24 2.83 2.83 0 0 1 2.48-1.24c1.81 0 2.94 1.24 2.94 3.24v3.89a.29.29 0 0 1-.31.3Z"/><path fill="#32027d" d="M42.81 11.48h.34V7.87c0-1.67-.88-2.66-2.36-2.66a2.16 2.16 0 0 0-2.2 1.4.24.24 0 0 1-.13.15v.13a2.29 2.29 0 0 1 .45-.69 2.25 2.25 0 0 1 1.67-.68 2.16 2.16 0 0 1 2.17 2.39ZM37.93 11.48h.33V6.8a.28.28 0 0 1-.26-.19 2.3 2.3 0 0 0-4-.32 2.37 2.37 0 0 1 1.83-.77 2.15 2.15 0 0 1 2.13 2.39ZM33 11.48h.34V8.05a2.86 2.86 0 0 1 .44-1.56.34.34 0 0 1-.2 0 .3.3 0 0 1-.24-.29v-.85H33Z"/><path fill="#382977" d="M38.05 6.41ZM38.58 6.41Z"/><path fill="#32027d" d="M44.54 2.5a.7.7 0 0 1 .7-.57.68.68 0 0 1 .76.67.67.67 0 0 1-.71.64.68.68 0 0 1-.75-.74Zm.25 2.57h.91v6.69h-.92V5.07Z"/><rect width="1.5" height="7.28" x="44.49" y="4.78" fill="#32027d" rx=".3"/><path fill="#32027d" d="M45.07 5.35h.34v6.13h-.34z"/><path fill="#3b2e84" d="M49.19 4.09v1h1.71v.78h-1.7v5.9h-.92V5.86H47v-.79h1.31v-.88c0-1.68.66-2.9 2.42-2.9h.62v.86h-.51c-1.29.01-1.65.85-1.65 1.94Z"/><path fill="#32027d" d="M49.18 12.06h-.9a.3.3 0 0 1-.3-.3V6.14H47a.3.3 0 0 1-.3-.29v-.78a.3.3 0 0 1 .3-.29h1v-.59C48 2.13 48.94 1 50.69 1h.62a.3.3 0 0 1 .3.3v.86a.3.3 0 0 1-.3.29h-.5c-.92 0-1.33.51-1.33 1.64v.69h1.41a.29.29 0 0 1 .3.29v.78a.29.29 0 0 1-.3.29h-1.41v5.62a.29.29 0 0 1-.3.3Z"/><path fill="#32027d" d="M48.56 11.48h.34V5.86a.3.3 0 0 1 .3-.29h1.41v-.22H49.2a.3.3 0 0 1-.3-.29v-1c0-1 .33-2.21 1.91-2.21H51v-.3h-.34c-1.41 0-2.13.88-2.13 2.61v.87a.29.29 0 0 1-.3.29h-1v.22h1a.29.29 0 0 1 .3.29Z"/><path fill="#3b2e84" d="M57.4 5.08 53.2 15h-1l1.37-3.33-2.76-6.6h1l2.28 5.46 2.31-5.46h1s.01 0 0 .01Z"/><path fill="#32027d" d="M53.2 15.32h-1a.31.31 0 0 1-.25-.13.34.34 0 0 1 0-.28l1.33-3.22-2.72-6.5a.28.28 0 0 1 0-.28.3.3 0 0 1 .25-.13h1a.29.29 0 0 1 .27.18l2 4.84 2-4.84a.3.3 0 0 1 .27-.18h1a.3.3 0 0 1 .27.41l-4.2 10a.29.29 0 0 1-.22.13Z"/><path fill="#32027d" d="M52.66 14.74H53l4-9.39h-.36l-2.23 5.29a.3.3 0 0 1-.27.19.32.32 0 0 1-.27-.19l-2.2-5.29h-.37l2.65 6.33v.12Z"/><path fill="#2c1e5c" d="m50.97 6.13-.56-1.36-.93 1.37 1.49-.01z"/><path fill="#32027d" d="M22.92 7.93v3.68a.31.31 0 0 1-.31.31h-.37a.31.31 0 0 1-.31-.31V8a2 2 0 0 0-2-2.12 2.2 2.2 0 0 0-2.39 2.27v3.49a.31.31 0 0 1-.31.31h-.37a.31.31 0 0 1-.31-.31V5.38a.31.31 0 0 1 .31-.31h.37a.31.31 0 0 1 .31.31.31.31 0 0 0 .51.23 3.12 3.12 0 0 1 2-.69 2.77 2.77 0 0 1 2.87 3.01Z"/><path fill="#32027d" d="M22.61 12.2h-.37a.58.58 0 0 1-.59-.59V8a1.7 1.7 0 0 0-1.75-1.87 1.92 1.92 0 0 0-2.11 2v3.49a.58.58 0 0 1-.59.59h-.37a.59.59 0 0 1-.6-.59V5.38a.6.6 0 0 1 .6-.6h.37a.59.59 0 0 1 .59.6A3.38 3.38 0 0 1 20 4.63a3.05 3.05 0 0 1 3.21 3.3v3.68a.59.59 0 0 1-.6.59ZM19.9 5.56A2.26 2.26 0 0 1 22.22 8v3.64h.37V7.93A2.48 2.48 0 0 0 20 5.21a2.85 2.85 0 0 0-1.79.61.59.59 0 0 1-1-.44h-.37v6.23h.37V8.12a2.5 2.5 0 0 1 2.69-2.56Z"/><path fill="url(#linear-gradient-2)" d="m6.56 9.11-1.23-2.7-1.39 1.78 2.28.89s.22-.17.34.03Z"/><path fill="url(#linear-gradient-3)" d="m8.21 7.75 1.26 2.78 1.38-1.81-2.3-.93s-.22.21-.34-.04Z"/></svg>