<svg xmlns="http://www.w3.org/2000/svg" width="127" height="24.118" viewBox="0 0 127 24.118">
  <g id="Group_540" data-name="Group 540" transform="translate(-359.99 -504)">
    <g id="Group_70" data-name="Group 70" transform="translate(405.213 510.03)">
      <path id="Path_109" data-name="Path 109" d="M1440,659.672V648.394a.348.348,0,0,1,.394-.394h4.635a3.125,3.125,0,0,1,2.28.8,3.017,3.017,0,0,1,.816,2.261v5.948a3.017,3.017,0,0,1-.816,2.261,3.125,3.125,0,0,1-2.28.8h-4.635A.348.348,0,0,1,1440,659.672Zm2.589-1.67h2.046a.934.934,0,0,0,1.107-1.107v-5.723a.934.934,0,0,0-1.107-1.107h-2.046a.182.182,0,0,0-.206.206V657.8A.182.182,0,0,0,1442.589,658Z" transform="translate(-1440 -648)" fill="#fff"/>
      <path id="Path_110" data-name="Path 110" d="M1674.9,717.174h-4.147a3.14,3.14,0,0,1-2.289-.788,3.03,3.03,0,0,1-.807-2.271v-3.452a3.03,3.03,0,0,1,.807-2.271,3.14,3.14,0,0,1,2.289-.788h1.483a3.141,3.141,0,0,1,2.289.788,3.032,3.032,0,0,1,.807,2.271v2.383a.348.348,0,0,1-.394.394h-4.71q-.225,0-.225.206v.413a1.149,1.149,0,0,0,.254.835,1.18,1.18,0,0,0,.854.253h3.79q.394,0,.394.413V716.8a.4.4,0,0,1-.084.291A.436.436,0,0,1,1674.9,717.174Zm-4.673-5.329h2.552a.183.183,0,0,0,.206-.206v-.9a.91.91,0,0,0-1.088-1.088h-.788a.91.91,0,0,0-1.089,1.088v.9A.182.182,0,0,0,1670.227,711.845Z" transform="translate(-1658.124 -705.108)" fill="#fff"/>
      <path id="Path_111" data-name="Path 111" d="M1885.075,717.174h-4.147a3.139,3.139,0,0,1-2.289-.788,3.03,3.03,0,0,1-.807-2.271v-3.452a3.03,3.03,0,0,1,.807-2.271,3.139,3.139,0,0,1,2.289-.788h1.483a3.141,3.141,0,0,1,2.289.788,3.033,3.033,0,0,1,.807,2.271v2.383a.348.348,0,0,1-.394.394h-4.71q-.225,0-.225.206v.413a1.149,1.149,0,0,0,.253.835,1.181,1.181,0,0,0,.854.253h3.791q.394,0,.394.413V716.8a.4.4,0,0,1-.084.291A.435.435,0,0,1,1885.075,717.174Zm-4.673-5.329h2.552a.183.183,0,0,0,.207-.206v-.9a.91.91,0,0,0-1.089-1.088h-.788a.91.91,0,0,0-1.088,1.088v.9A.182.182,0,0,0,1880.4,711.845Z" transform="translate(-1859.499 -705.108)" fill="#fff"/>
      <path id="Path_112" data-name="Path 112" d="M2094.479,719.726h-1.6q-.394,0-.394-.375V708a.348.348,0,0,1,.394-.394h1.6a.348.348,0,0,1,.393.394v.619h.075a1.422,1.422,0,0,1,.732-.76,2.517,2.517,0,0,1,1.107-.253h.769a2.86,2.86,0,0,1,2.186.788,3.19,3.19,0,0,1,.741,2.271v3.452a3.189,3.189,0,0,1-.741,2.271,2.86,2.86,0,0,1-2.186.788h-.769a2.516,2.516,0,0,1-1.107-.253,1.422,1.422,0,0,1-.732-.76h-.075v3.19Q2094.873,719.726,2094.479,719.726Zm1.688-4.616h.826A.934.934,0,0,0,2098.1,714v-3.228a.934.934,0,0,0-1.107-1.107h-.826q-1.3,0-1.3,1.426v2.59Q2094.873,715.11,2096.168,715.11Z" transform="translate(-2065.168 -705.108)" fill="#fff"/>
      <path id="Path_113" data-name="Path 113" d="M2326.112,648.394v11.278a.348.348,0,0,1-.394.394h-1.6a.348.348,0,0,1-.393-.394V648.394a.348.348,0,0,1,.393-.394h1.6A.348.348,0,0,1,2326.112,648.394Z" transform="translate(-2286.725 -648)" fill="#fff"/>
      <path id="Path_114" data-name="Path 114" d="M2427.446,717.174h-1.595a.348.348,0,0,1-.394-.394V708a.348.348,0,0,1,.394-.394h1.595a.348.348,0,0,1,.394.394v.619h.075a1.7,1.7,0,0,1,.761-.732,2.6,2.6,0,0,1,1.229-.281h.526a2.515,2.515,0,0,1,2.345,1.2,2.278,2.278,0,0,1,2.2-1.2h.545a2.861,2.861,0,0,1,2.186.788,3.2,3.2,0,0,1,.741,2.271v6.117a.348.348,0,0,1-.394.394h-1.6a.348.348,0,0,1-.393-.394v-6.005a1.21,1.21,0,0,0-.245-.854,1.145,1.145,0,0,0-.844-.253h-.469q-1.3,0-1.3,1.445v5.667q0,.394-.413.394h-1.576a.349.349,0,0,1-.395-.394v-6.005a.934.934,0,0,0-1.107-1.107h-.582q-1.295,0-1.3,1.426v5.686A.348.348,0,0,1,2427.446,717.174Z" transform="translate(-2384.193 -705.108)" fill="#fff"/>
      <path id="Path_115" data-name="Path 115" d="M2770.937,717.174h-.45a3.14,3.14,0,0,1-2.29-.788,3.031,3.031,0,0,1-.807-2.271v-3.452a3.032,3.032,0,0,1,.807-2.271,3.14,3.14,0,0,1,2.29-.788h4.334q.413,0,.413.394v8.782q0,.394-.413.394h-1.576a.348.348,0,0,1-.394-.394v-.619h-.076a1.421,1.421,0,0,1-.731.76A2.519,2.519,0,0,1,2770.937,717.174Zm1.914-3.49v-3.809c0-.138-.076-.207-.225-.207h-1.764a1.144,1.144,0,0,0-.844.253,1.212,1.212,0,0,0-.244.854V714a1.213,1.213,0,0,0,.244.854,1.145,1.145,0,0,0,.844.253h.694Q2772.85,715.11,2772.851,713.684Z" transform="translate(-2711.808 -705.108)" fill="#fff"/>
      <path id="Path_116" data-name="Path 116" d="M2992.318,716.742h-.62a2.858,2.858,0,0,1-2.186-.788,3.193,3.193,0,0,1-.741-2.271v-3.021a3.031,3.031,0,0,1,.807-2.271,3.14,3.14,0,0,1,2.29-.788h4.335q.412,0,.413.394v9.251a2.987,2.987,0,0,1-.816,2.252,3.147,3.147,0,0,1-2.28.788h-3.6a.439.439,0,0,1-.31-.085.405.405,0,0,1-.083-.291v-1.295a.348.348,0,0,1,.393-.394h3.209a1.182,1.182,0,0,0,.854-.253,1.153,1.153,0,0,0,.253-.835V715.71h-.076a1.458,1.458,0,0,1-.731.769A2.445,2.445,0,0,1,2992.318,716.742Zm1.914-3.49v-3.378c0-.138-.076-.207-.225-.207h-1.764a1.144,1.144,0,0,0-.844.253,1.209,1.209,0,0,0-.244.854v2.8a.91.91,0,0,0,1.088,1.088h.694Q2994.231,714.66,2994.231,713.252Z" transform="translate(-2923.919 -705.108)" fill="#fff"/>
      <path id="Path_117" data-name="Path 117" d="M3216.95,717.174H3212.8a3.14,3.14,0,0,1-2.289-.788,3.031,3.031,0,0,1-.807-2.271v-3.452a3.032,3.032,0,0,1,.807-2.271,3.14,3.14,0,0,1,2.289-.788h1.482a3.144,3.144,0,0,1,2.29.788,3.036,3.036,0,0,1,.806,2.271v2.383a.348.348,0,0,1-.394.394h-4.71c-.15,0-.225.069-.225.206v.413a1.146,1.146,0,0,0,.254.835,1.178,1.178,0,0,0,.853.253h3.791q.4,0,.395.413V716.8a.4.4,0,0,1-.084.291A.437.437,0,0,1,3216.95,717.174Zm-4.673-5.329h2.552a.182.182,0,0,0,.206-.206v-.9a.91.91,0,0,0-1.089-1.088h-.788a.91.91,0,0,0-1.088,1.088v.9A.182.182,0,0,0,3212.278,711.845Z" transform="translate(-3135.605 -705.108)" fill="#fff"/>
    </g>
    <g id="Group_71" data-name="Group 71" transform="translate(359.99 504)">
      <path id="Path_118" data-name="Path 118" d="M609.669,743.212l-4.264,4.264-2.1,2.1-.017.018-.028.028-.018.017a9.035,9.035,0,0,1-12.759-.031h0l-2.132-2.132.364-.364,1.768-1.768,2.132,2.132a6.027,6.027,0,0,0,8.527,0l2.132-2.132,2.132-2.132.5-.5,1.629-1.629,1.377,1.377Z" transform="translate(-578.788 -731.153)" fill="#71d6ff"/>
      <path id="Path_119" data-name="Path 119" d="M1086.03,507.014v3.015h-3.015v-3.015H1080V504h3.015A3.014,3.014,0,0,1,1086.03,507.014Z" transform="translate(-1049.851 -504)" fill="#71d6ff"/>
      <path id="Path_120" data-name="Path 120" d="M1086.03,936v3.015a3.014,3.014,0,0,1-3.014,3.014H1080v-3.014h3.015V936Z" transform="translate(-1049.851 -917.911)" fill="#71d6ff"/>
      <path id="Path_121" data-name="Path 121" d="M366.02,939.016v3.013H363a3.014,3.014,0,0,1-3.014-3.014h0V936h3.015v3.015h3.015Z" transform="translate(-359.99 -917.911)" fill="#71d6ff"/>
      <path id="Path_122" data-name="Path 122" d="M366.02,504v3.014h-3.015v3.015H359.99v-3.015h0A3.015,3.015,0,0,1,363,504Z" transform="translate(-359.99 -504)" fill="#71d6ff"/>
      <path id="Path_123" data-name="Path 123" d="M694.443,723.014l2.132,2.132h0a3.014,3.014,0,0,1-4.263,0h0l-2.132-2.132,2.132-2.132a3.014,3.014,0,0,1,4.263,0h0Z" transform="translate(-676.354 -710.955)" fill="#fff"/>
      <path id="Path_124" data-name="Path 124" d="M507.848,580.783l-.364.364-1.768,1.768-2.077-2.076-.055-.055-.055-.055a6.028,6.028,0,0,0-8.416,0l-.055.055-.055.055-2.077,2.076-4.264,4.264-2.132-2.132.755-.755,1.377-1.377,2.131-2.132,2.132-2.132h0a9.036,9.036,0,0,1,12.791,0Z" transform="translate(-481.231 -572.988)" fill="#71d6ff"/>
    </g>
  </g>
</svg>
